<svg xmlns="http://www.w3.org/2000/svg" xml:space="preserve" viewBox="0 0 511.991 511.991"><circle cx="255.996" cy="255.996" r="255.996" fill="#1F84CE"/><circle cx="255.996" cy="255.996" r="192.484" fill="#FFF"/><path fill="#145587" d="M218.618 372.636c-9.854 0-19.708-3.759-27.227-11.278l-51.254-51.254c-15.038-15.038-15.038-39.418 0-54.456 15.036-15.036 39.418-15.038 54.454 0l24.026 24.027 98.783-98.784c15.037-15.038 39.418-15.037 54.454 0s15.037 39.418 0 54.456l-126.01 126.011c-7.517 7.52-17.372 11.278-27.226 11.278" style="opacity:.15"/><path fill="#FB7686" d="M218.618 352.159c-9.854 0-19.708-3.759-27.227-11.278l-51.254-51.254c-15.038-15.038-15.038-39.418 0-54.456 15.036-15.036 39.418-15.038 54.454 0l24.026 24.027 98.783-98.784c15.037-15.038 39.418-15.037 54.454 0s15.037 39.418 0 54.456l-126.01 126.011c-7.517 7.519-17.372 11.278-27.226 11.278" style="fill:#0fe600"/><path fill="#145587" d="M256 63.52c-106.304 0-192.479 86.175-192.479 192.479a195 195 0 0 0 .512 14.026c7.185-99.753 90.382-178.453 191.969-178.453s184.782 78.7 191.968 178.453c.334-4.633.512-9.308.512-14.026C448.479 149.696 362.304 63.52 256 63.52" style="opacity:.15"/></svg>