<?xml version="1.0" encoding="UTF-8"?>
<!DOCTYPE svg PUBLIC "-//W3C//DTD SVG 1.1//EN" "http://www.w3.org/Graphics/SVG/1.1/DTD/svg11.dtd">
<svg xmlns="http://www.w3.org/2000/svg" version="1.1" width="128px" height="128px" style="shape-rendering:geometricPrecision; text-rendering:geometricPrecision; image-rendering:optimizeQuality; fill-rule:evenodd; clip-rule:evenodd" xmlns:xlink="http://www.w3.org/1999/xlink">
<g><path style="opacity:0.947" fill="#090605" d="M 8.5,-0.5 C 37.5,-0.5 66.5,-0.5 95.5,-0.5C 97.278,1.82918 98.278,4.49585 98.5,7.5C 107.506,7.33356 116.506,7.50023 125.5,8C 126.044,8.71719 126.711,9.21719 127.5,9.5C 127.5,18.5 127.5,27.5 127.5,36.5C 126.711,36.7828 126.044,37.2828 125.5,38C 116.506,38.4998 107.506,38.6664 98.5,38.5C 98.5,39.5 98.5,40.5 98.5,41.5C 107.506,41.3336 116.506,41.5002 125.5,42C 126.044,42.7172 126.711,43.2172 127.5,43.5C 127.5,52.5 127.5,61.5 127.5,70.5C 126.711,70.7828 126.044,71.2828 125.5,72C 116.506,72.4998 107.506,72.6664 98.5,72.5C 98.5,73.5 98.5,74.5 98.5,75.5C 107.173,75.3336 115.84,75.5002 124.5,76C 125.527,76.5133 126.527,77.0133 127.5,77.5C 127.5,86.8333 127.5,96.1667 127.5,105.5C 117.886,106.449 108.219,106.782 98.5,106.5C 98.6641,109.187 98.4974,111.854 98,114.5C 97.1667,116.667 95.6667,118.167 93.5,119C 75.8365,119.5 58.1698,119.667 40.5,119.5C 40.8928,122.513 40.2261,125.18 38.5,127.5C 36.5,127.5 34.5,127.5 32.5,127.5C 30.5,124.833 28.5,124.833 26.5,127.5C 24.1667,127.5 21.8333,127.5 19.5,127.5C 18.612,124.946 18.2786,122.279 18.5,119.5C 9.68543,120.596 3.35209,117.262 -0.5,109.5C -0.5,75.8333 -0.5,42.1667 -0.5,8.5C 0.803551,7.01307 1.97022,5.3464 3,3.5C 5.01533,2.30342 6.84866,0.970083 8.5,-0.5 Z"/></g>
<g><path style="opacity:1" fill="#fad800" d="M 14.5,4.5 C 39.5,4.5 64.5,4.5 89.5,4.5C 89.5,32.5 89.5,60.5 89.5,88.5C 64.5,88.5 39.5,88.5 14.5,88.5C 14.5,60.5 14.5,32.5 14.5,4.5 Z"/></g>
<g><path style="opacity:1" fill="#e1af05" d="M 14.5,4.5 C 40.3301,3.33655 66.3301,3.16988 92.5,4C 93.1626,18.0937 93.4959,32.2604 93.5,46.5C 93.4959,60.7396 93.1626,74.9063 92.5,89C 66.3301,89.8301 40.3301,89.6635 14.5,88.5C 39.5,88.5 64.5,88.5 89.5,88.5C 89.5,60.5 89.5,32.5 89.5,4.5C 64.5,4.5 39.5,4.5 14.5,4.5 Z"/></g>
<g><path style="opacity:1" fill="#a12c22" d="M 8.5,5.5 C 8.55999,4.95691 8.89333,4.62358 9.5,4.5C 10.8295,32.9971 10.8295,61.3305 9.5,89.5C 9.8313,61.3284 9.49796,33.3284 8.5,5.5 Z"/></g>
<g><path style="opacity:1" fill="#e94032" d="M 8.5,5.5 C 9.49796,33.3284 9.8313,61.3284 9.5,89.5C 7.64547,90.6896 5.81213,92.0229 4,93.5C 3.33333,66.1667 3.33333,38.8333 4,11.5C 4.79181,8.89361 6.29181,6.89361 8.5,5.5 Z"/></g>
<g><path style="opacity:1" fill="#070904" d="M 47.5,8.5 C 72.5093,7.67668 84.676,19.6767 84,44.5C 78.8651,62.9464 66.6984,71.1131 47.5,69C 28.8697,62.9264 21.0363,50.0931 24,30.5C 28.2236,19.1036 36.0569,11.7703 47.5,8.5 Z"/></g>
<g><path style="opacity:1" fill="#3d4eb0" d="M 97.5,12.5 C 98.8333,12.5 100.167,12.5 101.5,12.5C 101.5,19.5 101.5,26.5 101.5,33.5C 100.167,33.5 98.8333,33.5 97.5,33.5C 97.5,26.5 97.5,19.5 97.5,12.5 Z"/></g>
<g><path style="opacity:1" fill="#fee0b1" d="M 106.5,12.5 C 108.5,12.5 110.5,12.5 112.5,12.5C 112.5,19.5 112.5,26.5 112.5,33.5C 110.5,33.5 108.5,33.5 106.5,33.5C 106.5,26.5 106.5,19.5 106.5,12.5 Z"/></g>
<g><path style="opacity:1" fill="#e13d30" d="M 116.5,12.5 C 118.833,12.5 121.167,12.5 123.5,12.5C 123.5,19.5 123.5,26.5 123.5,33.5C 121.167,33.5 118.833,33.5 116.5,33.5C 116.5,26.5 116.5,19.5 116.5,12.5 Z"/></g>
<g><path style="opacity:1" fill="#427510" d="M 47.5,12.5 C 48.8734,12.3433 50.2068,12.51 51.5,13C 47.5669,15.7563 43.2336,17.0897 38.5,17C 41.5919,15.4541 44.5919,13.9541 47.5,12.5 Z"/></g>
<g><path style="opacity:1" fill="#518f13" d="M 65.5,16.5 C 73.1752,19.0186 78.0085,24.3519 80,32.5C 80.6667,36.8333 80.6667,41.1667 80,45.5C 79.5348,46.9308 78.7014,48.0975 77.5,49C 73.7333,51.3944 69.7333,52.8944 65.5,53.5C 66.6587,48.1966 67.492,42.8633 68,37.5C 65.2541,32.6808 61.0874,29.8475 55.5,29C 53.9717,26.1192 54.6384,23.7859 57.5,22C 60.7556,20.884 63.4223,19.0507 65.5,16.5 Z"/></g>
<g><path style="opacity:1" fill="#00b5cc" d="M 56.5,12.5 C 58.6547,12.372 60.6547,12.872 62.5,14C 58.912,16.3773 55.412,18.8773 52,21.5C 50.5783,24.0301 50.245,26.6967 51,29.5C 54.49,32.8916 58.49,35.5583 63,37.5C 62.0718,43.4082 61.7385,49.4082 62,55.5C 62.5,56 63,56.5 63.5,57C 66.9066,57.4818 70.24,57.4818 73.5,57C 72.8333,57.6667 72.1667,58.3333 71.5,59C 65.5,59.3333 59.5,59.6667 53.5,60C 50.6714,61.2467 48.0048,62.7467 45.5,64.5C 44.2519,63.9598 43.0852,63.2931 42,62.5C 41.4517,54.0786 41.785,45.7453 43,37.5C 40.3003,35.1465 37.1336,33.6465 33.5,33C 28.3397,29.4311 28.3397,25.7644 33.5,22C 40.57,21.8992 47.2367,20.2325 53.5,17C 54.8825,15.7292 55.8825,14.2292 56.5,12.5 Z"/></g>
<g><path style="opacity:1" fill="#5da416" d="M 27.5,34.5 C 30.9797,36.832 34.813,38.4987 39,39.5C 38.8107,43.7513 37.9774,47.9179 36.5,52C 38.7953,60.7692 37.2953,61.6025 32,54.5C 28.0942,48.3889 26.5942,41.7223 27.5,34.5 Z"/></g>
<g><path style="opacity:1" fill="#f2d4a8" d="M 97.5,46.5 C 106.167,46.5 114.833,46.5 123.5,46.5C 123.5,53.5 123.5,60.5 123.5,67.5C 114.833,67.5 106.167,67.5 97.5,67.5C 97.5,60.5 97.5,53.5 97.5,46.5 Z"/></g>
<g><path style="opacity:1" fill="#120e0b" d="M 108.5,50.5 C 115.088,50.6566 117.588,53.99 116,60.5C 112.254,64.3927 108.588,64.3927 105,60.5C 103.581,56.0823 104.748,52.7489 108.5,50.5 Z"/></g>
<g><path style="opacity:1" fill="#db3c2f" d="M 108.5,55.5 C 109.833,55.5 111.167,55.5 112.5,55.5C 112.778,57.3464 112.111,58.6798 110.5,59.5C 108.889,58.6798 108.222,57.3464 108.5,55.5 Z"/></g>
<g><path style="opacity:1" fill="#437710" d="M 54.5,63.5 C 57.1873,63.3359 59.854,63.5026 62.5,64C 59.2976,65.4833 55.9643,65.8166 52.5,65C 53.4158,64.7216 54.0825,64.2216 54.5,63.5 Z"/></g>
<g><path style="opacity:1" fill="#060500" d="M 34.5,74.5 C 47.5,74.5 60.5,74.5 73.5,74.5C 73.5,75.8333 73.5,77.1667 73.5,78.5C 60.4957,78.6666 47.4957,78.4999 34.5,78C 33.3157,76.8545 33.3157,75.6879 34.5,74.5 Z"/></g>
<g><path style="opacity:1" fill="#57727f" d="M 97.5,80.5 C 106.167,80.5 114.833,80.5 123.5,80.5C 123.5,81.8333 123.5,83.1667 123.5,84.5C 114.833,84.5 106.167,84.5 97.5,84.5C 97.5,83.1667 97.5,81.8333 97.5,80.5 Z"/></g>
<g><path style="opacity:1" fill="#e53d30" d="M 96.5,89.5 C 105.5,89.5 114.5,89.5 123.5,89.5C 123.5,90.8333 123.5,92.1667 123.5,93.5C 113.494,93.6665 103.494,93.4998 93.5,93C 95.0629,92.2411 96.0629,91.0744 96.5,89.5 Z"/></g>
<g><path style="opacity:1" fill="#fbdcaf" d="M 10.5,93.5 C 34.5093,93.1669 58.5093,93.5003 82.5,94.5C 80.0486,101.134 80.0486,107.801 82.5,114.5C 68.5,114.5 54.5,114.5 40.5,114.5C 40.5,111.833 40.5,109.167 40.5,106.5C 43.5184,106.665 46.5184,106.498 49.5,106C 50.8333,104.667 50.8333,103.333 49.5,102C 36.8333,101.333 24.1667,101.333 11.5,102C 10.1667,103.333 10.1667,104.667 11.5,106C 13.8098,106.497 16.1432,106.663 18.5,106.5C 18.5,109.167 18.5,111.833 18.5,114.5C 8.70938,115.538 3.87605,111.205 4,101.5C 5.30459,98.0386 7.47125,95.372 10.5,93.5 Z"/></g>
<g><path style="opacity:1" fill="#f6d300" d="M 123.5,101.5 C 110.456,102.147 97.7892,101.48 85.5,99.5C 97.7892,97.5197 110.456,96.853 123.5,97.5C 123.5,98.8333 123.5,100.167 123.5,101.5 Z"/></g>
<g><path style="opacity:1" fill="#635400" d="M 85.5,99.5 C 97.7892,101.48 110.456,102.147 123.5,101.5C 110.677,102.495 97.6774,102.829 84.5,102.5C 84.2627,101.209 84.596,100.209 85.5,99.5 Z"/></g>
<g><path style="opacity:1" fill="#701e18" d="M 35.5,106.5 C 31.5,106.5 27.5,106.5 23.5,106.5C 23.5,111.833 23.5,117.167 23.5,122.5C 22.5111,117.025 22.1778,111.358 22.5,105.5C 27.0323,105.182 31.3656,105.515 35.5,106.5 Z"/></g>
<g><path style="opacity:1" fill="#e7392e" d="M 35.5,106.5 C 35.8282,111.875 35.4948,117.208 34.5,122.5C 30.8443,119.995 27.1777,119.995 23.5,122.5C 23.5,117.167 23.5,111.833 23.5,106.5C 27.5,106.5 31.5,106.5 35.5,106.5 Z"/></g>
<g><path style="opacity:1" fill="#743c20" d="M 85.5,106.5 C 88.1667,106.5 90.8333,106.5 93.5,106.5C 93.6633,108.857 93.4966,111.19 93,113.5C 87.587,114.831 85.087,112.498 85.5,106.5 Z"/></g>
</svg>
